<?xml version="1.0" encoding="UTF-8"?><svg id="Layer_2" xmlns="http://www.w3.org/2000/svg" viewBox="0 0 24 24"><defs><style>.cls-1{fill:#3549cb;}</style></defs><g id="Layer_1-2"><g><path class="cls-1" d="M16.02,17.17h0c-.18-.65-.97-4.06,1.41-6.98,1.77-2.18,4.16-2.71,5.64-2.81-.88-2.09-2.34-3.88-4.17-5.17-1.33,.71-3.81,2.23-4.88,4.1-.47,.82-.74,1.68-.74,1.69-.25,.8-.37,1.71-.37,2.78,0,3.78-.38,4.68-1.58,5.64-.67,.54-1.57,.8-2.46,.8s-1.8-.28-2.43-.83c-1.1-.97-1.07-2.35-1.05-3.46,.01-.6,.03-1.27-.18-1.46-.03-.03-.88-.68-5.17,1.86,.66,6,5.76,10.68,11.94,10.68,2.72,0,5.23-.92,7.25-2.45-1.24-.85-2.61-2.24-3.21-4.38Z"/><path class="cls-1" d="M6.42,10.07c.87,.75,.84,1.89,.82,2.89-.02,1.01,0,1.66,.42,2.03,.57,.5,1.86,.49,2.51-.03,.55-.44,.89-.71,.89-4.2,0-1.26,.15-2.35,.45-3.33,.01-.04,.32-1.05,.9-2.05,1.05-1.84,3.09-3.33,4.63-4.26-1.54-.72-3.25-1.13-5.06-1.13C5.62,0,.4,4.97,0,11.22H0c3.24-1.79,5.27-2.15,6.42-1.15Z"/><path class="cls-1" d="M23.66,9.2c-1.02,0-3.25,.25-4.79,2.15h0c-1.84,2.26-1.15,5.02-1.06,5.33,.52,1.87,1.81,2.99,2.85,3.61,2.07-2.16,3.35-5.07,3.35-8.29,0-.96-.13-1.9-.34-2.8Z"/></g></g></svg>