<svg width="17" height="17" viewBox="0 0 17 17" fill="none" xmlns="http://www.w3.org/2000/svg">
<path d="M9.31356 11.93C9.21356 11.83 9.16356 11.7105 9.16356 11.5716C9.16356 11.4328 9.208 11.3189 9.29689 11.23L11.7469 8.77998H3.48022C3.33578 8.77998 3.21634 8.73276 3.12189 8.63831C3.02745 8.54387 2.98022 8.42442 2.98022 8.27998C2.98022 8.13554 3.02745 8.01609 3.12189 7.92165C3.21634 7.8272 3.33578 7.77998 3.48022 7.77998H11.7469L9.28022 5.31331C9.18022 5.21331 9.133 5.09665 9.13856 4.96331C9.14411 4.82998 9.19689 4.71331 9.29689 4.61331C9.39689 4.52442 9.51634 4.47998 9.65522 4.47998C9.79411 4.47998 9.908 4.52442 9.99689 4.61331L13.3136 7.92998C13.3691 7.98554 13.408 8.04109 13.4302 8.09665C13.4524 8.1522 13.4636 8.21331 13.4636 8.27998C13.4636 8.34665 13.4524 8.40776 13.4302 8.46331C13.408 8.51887 13.3691 8.57443 13.3136 8.62998L10.0136 11.93C9.91356 12.03 9.79689 12.08 9.66356 12.08C9.53022 12.08 9.41356 12.03 9.31356 11.93Z" fill="white"/>
</svg>
