<svg width="279" height="25" viewBox="0 0 279 25" fill="none" xmlns="http://www.w3.org/2000/svg">
<path d="M0 6.66H2.16V8.89C3.31 7.09 5.02 6.19 7.29 6.19C9.88 6.19 11.57 7.24 12.36 9.33C13.55 7.23 15.41 6.19 17.93 6.19C19.8 6.19 21.25 6.75 22.29 7.88C23.08 8.76 23.47 10.19 23.47 12.17V24.2H21.31V12.17C21.31 10.86 21.04 9.89 20.5 9.26C19.82 8.49 18.83 8.11 17.53 8.11C15.84 8.11 14.58 8.75 13.75 10.04C13.16 10.94 12.87 12.27 12.87 14.03V24.21H10.71V12.17C10.71 10.86 10.47 9.92 10 9.33C9.35 8.52 8.38 8.11 7.1 8.11C5.59 8.11 4.39 8.59 3.5 9.55C2.61 10.51 2.17 11.8 2.17 13.42V24.2H0V6.66Z" fill="white"/>
<path d="M30.83 11.53H28.53C28.62 7.65 30.95 5.72 35.52 5.72C39.82 5.72 41.97 7.48 41.97 10.99V20.83C41.97 21.69 42.25 22.11 42.81 22.11C43.03 22.11 43.41 21.96 43.92 21.67V23.56C43.22 23.81 42.64 23.93 42.16 23.93C40.58 23.93 39.8 23.13 39.8 21.53V21.12C38.45 23.17 36.33 24.2 33.45 24.2C31.54 24.2 30.06 23.69 29.03 22.68C28.13 21.8 27.68 20.63 27.68 19.16C27.68 17.56 28.21 16.3 29.27 15.37C30.08 14.67 31.39 14.19 33.19 13.92L39.71 12.87C39.73 12.71 39.74 12.56 39.74 12.4C39.74 10.51 39.44 9.24 38.85 8.6C38.25 7.96 37.11 7.64 35.42 7.64C33.89 7.64 32.76 7.95 32.03 8.57C31.3 9.19 30.9 10.18 30.83 11.53ZM39.81 14.61L33.56 15.76C31.17 16.17 29.98 17.28 29.98 19.11C29.98 20.12 30.33 20.93 31.03 21.53C31.73 22.13 32.66 22.43 33.83 22.43C36.08 22.43 37.78 21.59 38.93 19.89C39.51 19.03 39.81 17.95 39.81 16.65V14.61Z" fill="white"/>
<path d="M53.49 6.42V8.18H50.25V20.55C50.25 21.14 50.35 21.54 50.54 21.75C50.73 21.96 51.07 22.07 51.57 22.07C52.13 22.07 52.75 21.96 53.43 21.73L53.8 23.76C52.58 24.05 51.59 24.2 50.83 24.2C49.77 24.2 49.03 23.94 48.6 23.42C48.17 22.9 47.96 22.01 47.96 20.75V8.18H45.46V6.42H47.96V2.81L50.26 1.32V6.42H53.5H53.49Z" fill="white"/>
<path d="M57.17 24.21V0H59.33V8.92C60.59 7.09 62.41 6.18 64.8 6.18C66.94 6.18 68.54 6.84 69.6 8.17C70.32 9.07 70.68 10.53 70.68 12.53V24.19H68.52V12.85C68.52 11.39 68.28 10.31 67.81 9.64C67.13 8.63 66.04 8.12 64.53 8.12C62.91 8.12 61.6 8.68 60.61 9.81C59.75 10.8 59.33 12.02 59.33 13.46V24.21H57.17Z" fill="white"/>
<path d="M90.27 15.31H77.17C77.24 17.65 77.85 19.43 78.99 20.65C79.98 21.73 81.29 22.27 82.91 22.27C85.45 22.27 87.18 20.92 88.08 18.21H90.27C89.03 22.2 86.56 24.19 82.84 24.19C80.25 24.19 78.25 23.27 76.83 21.42C75.59 19.77 74.97 17.65 74.97 15.03C74.97 12.03 75.78 9.67 77.4 7.93C78.82 6.44 80.62 5.7 82.8 5.7C85.25 5.7 87.16 6.59 88.51 8.37C89.7 9.93 90.3 11.97 90.3 14.49C90.3 14.65 90.29 14.92 90.27 15.3V15.31ZM88.04 13.55C87.95 11.7 87.44 10.25 86.52 9.21C85.6 8.16 84.37 7.64 82.84 7.64C81.31 7.64 80.06 8.15 79.09 9.18C78.12 10.21 77.51 11.67 77.27 13.56H88.04V13.55Z" fill="white"/>
<path d="M108.03 23.73H105.87V21.26C104.54 23.22 102.72 24.2 100.4 24.2C98.37 24.2 96.84 23.59 95.81 22.37C95.02 21.47 94.63 20.06 94.63 18.14V6.19H96.79V17.68C96.79 19.3 97.07 20.43 97.63 21.06C98.31 21.87 99.32 22.28 100.67 22.28C102.18 22.28 103.44 21.77 104.45 20.76C105.4 19.81 105.87 18.39 105.87 16.5V6.19H108.03V23.73Z" fill="white"/>
<path d="M126.03 11.26H123.63C123.23 8.85 121.75 7.64 119.21 7.64C116.46 7.64 115.09 8.65 115.09 10.68C115.09 11.96 115.96 12.81 117.69 13.21L122.01 14.26C124.78 14.91 126.16 16.37 126.16 18.62C126.16 20.45 125.46 21.87 124.07 22.88C122.85 23.76 121.29 24.2 119.38 24.2C116.75 24.2 114.8 23.44 113.54 21.93C113.02 21.3 112.67 20.76 112.49 20.32C112.31 19.88 112.21 19.27 112.19 18.48H114.66C114.75 19.83 115.17 20.8 115.91 21.39C116.65 21.98 117.85 22.27 119.49 22.27C120.84 22.27 121.91 21.97 122.7 21.36C123.49 20.75 123.88 19.93 123.88 18.89C123.88 17.54 122.95 16.65 121.08 16.22L116.82 15.2C114.14 14.57 112.8 13.08 112.8 10.74C112.8 9.19 113.38 7.96 114.54 7.05C115.7 6.15 117.28 5.7 119.28 5.7C121.4 5.7 123.07 6.29 124.31 7.46C125.35 8.45 125.92 9.71 126.03 11.25V11.26Z" fill="white"/>
<path d="M144.33 6.66V9.74H141.63V24.21H136.97V9.74H134.44V6.66H136.97V4.5C136.97 1.5 138.48 0 141.49 0C142.21 0 143.11 0.03 144.19 0.1V3.58C143.74 3.51 143.3 3.48 142.87 3.48C142.04 3.48 141.62 3.95 141.62 4.9V6.66H144.33Z" fill="white"/>
<path d="M162.67 16.09H150.65C150.72 17.53 150.94 18.56 151.33 19.17C151.98 20.16 153.01 20.66 154.4 20.66C156.13 20.66 157.29 19.94 157.88 18.5H162.47C161.95 20.26 160.94 21.65 159.45 22.68C157.95 23.71 156.2 24.22 154.2 24.22C151.48 24.22 149.38 23.31 147.92 21.48C146.64 19.88 146 17.77 146 15.16C146 11.98 146.83 9.53 148.5 7.79C149.96 6.3 151.89 5.56 154.27 5.56C156.09 5.56 157.69 6.01 159.07 6.91C160.44 7.81 161.42 9.07 162.01 10.7C162.48 11.96 162.72 13.48 162.72 15.26C162.72 15.49 162.71 15.77 162.69 16.1L162.67 16.09ZM157.84 13.01C157.61 10.4 156.41 9.09 154.23 9.09C152.18 9.09 151.01 10.4 150.72 13.01H157.85H157.84Z" fill="white"/>
<path d="M165.98 6.29H170.64V9.7C171.22 7.18 172.89 5.91 175.64 5.91H176.55L176.58 10.51C176.02 10.4 175.43 10.34 174.82 10.34C173.29 10.34 172.23 10.62 171.65 11.18C170.97 11.81 170.64 12.95 170.64 14.59V24.19H165.98V6.29Z" fill="white"/>
<path d="M178.88 6.29H183.54V9.7C184.12 7.18 185.79 5.91 188.54 5.91H189.45L189.48 10.51C188.92 10.4 188.33 10.34 187.72 10.34C186.19 10.34 185.13 10.62 184.55 11.18C183.87 11.81 183.54 12.95 183.54 14.59V24.19H178.88V6.29Z" fill="white"/>
<path d="M207.34 16.09H195.32C195.39 17.53 195.61 18.56 196 19.17C196.65 20.16 197.68 20.66 199.07 20.66C200.8 20.66 201.96 19.94 202.55 18.5H207.14C206.62 20.26 205.61 21.65 204.12 22.68C202.63 23.71 200.87 24.22 198.87 24.22C196.15 24.22 194.05 23.31 192.59 21.48C191.31 19.88 190.66 17.77 190.66 15.16C190.66 11.98 191.49 9.53 193.16 7.79C194.62 6.3 196.55 5.56 198.93 5.56C200.75 5.56 202.35 6.01 203.73 6.91C205.1 7.81 206.08 9.07 206.67 10.7C207.14 11.96 207.38 13.48 207.38 15.26C207.38 15.49 207.37 15.77 207.35 16.1L207.34 16.09ZM202.51 13.01C202.28 10.4 201.08 9.09 198.9 9.09C196.85 9.09 195.68 10.4 195.39 13.01H202.52H202.51Z" fill="white"/>
<path d="M215.38 6.29V24.21H210.72V6.29H215.38ZM213.02 0.139999C213.63 0.139999 214.14 0.349999 214.56 0.779999C214.98 1.21 215.19 1.73 215.19 2.33C215.19 2.93 214.98 3.45 214.56 3.87C214.14 4.29 213.63 4.5 213.02 4.5C212.41 4.5 211.89 4.29 211.47 3.87C211.04 3.45 210.83 2.94 210.83 2.33C210.83 1.72 211.04 1.2 211.47 0.779999C211.9 0.349999 212.42 0.139999 213.02 0.139999Z" fill="white"/>
<path d="M219.87 6.29H224.53V9.7C225.11 7.18 226.78 5.91 229.53 5.91H230.44L230.47 10.51C229.91 10.4 229.32 10.34 228.71 10.34C227.18 10.34 226.12 10.62 225.54 11.18C224.86 11.81 224.53 12.95 224.53 14.59V24.19H219.87V6.29Z" fill="white"/>
<path d="M248.07 22.65V23.83H243C242.66 23.4 242.48 22.79 242.46 22C241.22 23.46 239.42 24.2 237.06 24.2C235.33 24.2 233.93 23.67 232.87 22.61C232.01 21.75 231.59 20.57 231.59 19.06C231.59 16.81 232.49 15.21 234.29 14.26C235.06 13.85 236.58 13.45 238.85 13.04L242.5 12.36L242.47 11.07C242.45 9.88 241.55 9.28 239.77 9.28C238.62 9.28 237.82 9.45 237.36 9.8C236.9 10.15 236.61 10.79 236.5 11.71H232.04C232.31 7.59 234.85 5.52 239.67 5.52C242.33 5.52 244.24 5.99 245.41 6.94C246.47 7.84 247 9.2 247 11.03V21.04C247 21.85 247.36 22.38 248.08 22.63L248.07 22.65ZM242.5 15.18L239.09 15.96C238.12 16.19 237.4 16.51 236.93 16.94C236.48 17.37 236.25 17.9 236.25 18.53C236.25 19.82 237.08 20.46 238.75 20.46C241.16 20.46 242.4 19.14 242.47 16.5L242.5 15.18Z" fill="white"/>
<path d="M270.26 17.92C270.08 17.27 269.29 13.86 271.67 10.94C273.44 8.76 275.83 8.23 277.31 8.13C276.43 6.04 274.97 4.25 273.14 2.96C271.81 3.67 269.33 5.19 268.26 7.06C267.79 7.88 267.52 8.74 267.52 8.75C267.27 9.55 267.15 10.46 267.15 11.53C267.15 15.31 266.77 16.21 265.57 17.17C264.9 17.71 264 17.97 263.11 17.97C262.22 17.97 261.31 17.69 260.68 17.14C259.58 16.17 259.61 14.79 259.63 13.68C259.64 13.08 259.66 12.41 259.45 12.22C259.42 12.19 258.57 11.54 254.28 14.08C254.94 20.08 260.04 24.76 266.22 24.76C268.94 24.76 271.45 23.84 273.47 22.31C272.23 21.46 270.86 20.07 270.26 17.93V17.92Z" fill="white"/>
<path d="M260.66 10.82C261.53 11.57 261.5 12.71 261.48 13.71C261.46 14.72 261.48 15.37 261.9 15.74C262.47 16.24 263.76 16.23 264.41 15.71C264.96 15.27 265.3 15 265.3 11.51C265.3 10.25 265.45 9.16 265.75 8.18C265.76 8.14 266.07 7.13 266.65 6.13C267.7 4.29 269.74 2.8 271.28 1.87C269.74 1.15 268.03 0.74 266.22 0.74C259.86 0.74 254.64 5.71 254.24 11.96C257.48 10.17 259.51 9.81 260.66 10.81V10.82Z" fill="white"/>
<path d="M277.89 9.95C276.87 9.95 274.64 10.2 273.1 12.1C271.26 14.36 271.95 17.12 272.04 17.43C272.56 19.3 273.85 20.42 274.89 21.04C276.96 18.88 278.24 15.97 278.24 12.75C278.24 11.79 278.11 10.85 277.9 9.95H277.89Z" fill="white"/>
</svg>
